<?xml version="1.0" encoding="utf-8"?>
<!-- Generator: Adobe Illustrator 19.0.0, SVG Export Plug-In . SVG Version: 6.00 Build 0)  -->
<svg version="1.1" id="레이어_1" xmlns="http://www.w3.org/2000/svg" xmlns:xlink="http://www.w3.org/1999/xlink" x="0px"
	 y="0px" viewBox="0 0 680.3 680.3" style="enable-background:new 0 0 680.3 680.3;" xml:space="preserve">
<style type="text/css">
	.st0{fill:none;stroke:#CF2E2E;stroke-width:60;stroke-miterlimit:10;}
	.st1{fill:#FFFFFF;}
	.st2{fill:#FFFFFF;stroke:#FFFFFF;stroke-width:6;stroke-miterlimit:10;}
	.st3{font-family:'NanumBarunGothicOTF-KSCpc-EUC-H';}
	.st4{font-size:183.017px;}
</style>
<path id="XMLID_2_" class="st0" d="M341.2,544.1"/>
<g id="XMLID_4_">
	<g id="XMLID_1_">
		<path id="XMLID_12_" class="st1" d="M333.9,660c0,0-1.8,0-5.2,0c-1.7,0-3.9,0-6.4,0c-1.3,0-2.7,0-4.1,0c-1.5-0.1-3.1-0.1-4.8-0.2
			c-3.4-0.2-7.2-0.3-11.4-0.5c-4.1-0.4-8.7-0.9-13.6-1.3c-0.6-0.1-1.2-0.1-1.9-0.2c-0.6-0.1-1.2-0.2-1.9-0.3
			c-1.3-0.2-2.5-0.4-3.9-0.6c-2.6-0.4-5.3-0.8-8.1-1.2c-1.4-0.2-2.8-0.5-4.2-0.8c-1.4-0.3-2.9-0.6-4.3-0.9c-2.9-0.6-6-1.2-9.1-1.9
			c-3.1-0.8-6.2-1.6-9.5-2.4c-1.6-0.4-3.3-0.8-4.9-1.3c-1.6-0.5-3.3-1-5-1.5c-3.4-1.1-6.8-2-10.3-3.2c-3.5-1.3-7-2.5-10.6-3.8
			c-14.3-5.5-29.5-12.5-45-21.4c-15.5-8.9-31.1-19.8-46.5-32.8c-15.3-13-30.3-28.2-44-45.6c-13.7-17.5-26.1-37.1-36.5-58.8
			c-0.6-1.4-1.3-2.7-2-4.1c-0.6-1.4-1.3-2.7-1.9-4.1c-1.2-2.8-2.4-5.6-3.5-8.4c-0.6-1.4-1.2-2.8-1.8-4.2c-0.6-1.4-1.1-2.9-1.6-4.3
			c-1.1-2.9-2.1-5.8-3.2-8.7l-0.8-2.2l-0.7-2.2c-0.5-1.5-0.9-3-1.4-4.5c-0.9-3-1.9-6-2.8-9c-0.8-3.1-1.6-6.1-2.4-9.2
			c-0.4-1.5-0.8-3.1-1.2-4.6c-0.4-1.5-0.7-3.1-1-4.7c-0.6-3.1-1.3-6.3-1.9-9.5l-0.5-2.4c-0.1-0.8-0.2-1.6-0.4-2.4
			c-0.2-1.6-0.5-3.2-0.7-4.8c-0.5-3.2-1-6.4-1.4-9.7c-0.3-3.3-0.6-6.5-1-9.8c-0.2-1.6-0.3-3.3-0.5-4.9c-0.2-1.6-0.2-3.3-0.3-5
			c-0.2-3.3-0.3-6.6-0.5-10l-0.1-2.5l0-2.8c0-1.6,0-3.2,0-4.8s0-3.2,0-4.8l0-2.4c0-0.8,0-1.6,0.1-2.5c0.2-3.5,0.4-6.9,0.6-10.4
			c0.1-1.7,0.2-3.5,0.3-5.2c0.2-1.7,0.4-3.4,0.5-5.1c0.4-3.4,0.7-6.8,1.1-10.3c0.4-3.4,1-6.8,1.5-10.3c0.9-6.9,2.5-13.7,3.9-20.5
			c0.3-1.7,0.8-3.4,1.2-5.1c0.4-1.7,0.9-3.4,1.3-5.1c0.4-1.7,0.9-3.4,1.3-5.1c0.2-0.9,0.4-1.7,0.7-2.6l0.8-2.5
			c16.1-54.3,47.9-106.2,92.3-146.6c2.8-2.5,5.6-5,8.4-7.5c2.9-2.4,5.8-4.8,8.8-7.1c2.9-2.4,6-4.6,9-6.9l4.6-3.4l2.3-1.7l2.4-1.6
			c3.2-2.1,6.3-4.2,9.5-6.3c1.6-1.1,3.2-2,4.8-3l4.9-2.9l4.9-2.9c1.7-0.9,3.4-1.8,5-2.7c3.4-1.8,6.7-3.6,10.1-5.3
			c6.9-3.2,13.8-6.7,20.9-9.4L218,41l2.7-1.1l2.7-1l10.8-3.9c1.8-0.7,3.7-1.2,5.5-1.7l5.5-1.7l5.5-1.7c1.8-0.5,3.7-0.9,5.6-1.4
			l11.2-2.8l11.3-2.2c1.9-0.4,3.8-0.8,5.7-1.1l5.7-0.8l5.7-0.8c1.9-0.2,3.8-0.6,5.7-0.7c7.7-0.7,15.3-1.6,23-1.8l5.8-0.3l2.9-0.1
			c0.5,0-0.1,0,1.4,0l0.7,0l1.3,0l10.7,0l2.7,0c0.9,0,2,0.1,2.9,0.1l6,0.3l6,0.3l3,0.2l2.9,0.3c3.8,0.4,7.7,0.8,11.5,1.2
			c1,0.1,1.9,0.2,2.9,0.3l2.9,0.4l5.7,0.9c7.6,1,15.1,2.8,22.7,4.3c3.8,0.9,7.5,1.9,11.2,2.8l5.6,1.4l5.5,1.7
			c3.7,1.1,7.4,2.2,11,3.4c3.6,1.3,7.2,2.6,10.8,3.9c3.6,1.3,7.1,2.8,10.7,4.3l5.3,2.2l2.6,1.1c0.9,0.4,1.7,0.8,2.6,1.2
			c3.4,1.7,6.9,3.3,10.3,5c1.7,0.8,3.4,1.7,5.1,2.6l5,2.7c3.4,1.8,6.7,3.6,9.9,5.6c3.2,2,6.5,4,9.7,5.9c3.2,2.1,6.3,4.3,9.4,6.4
			c1.6,1.1,3.1,2.1,4.7,3.2l4.5,3.4c12.2,8.9,23.5,19,34.2,29.4c2.6,2.7,5.2,5.3,7.8,8c0.6,0.7,1.3,1.3,1.9,2l1.8,2.1l3.7,4.2
			c5,5.5,9.5,11.4,14.1,17.1c1.2,1.4,2.2,3,3.3,4.4l3.2,4.5c2.1,3,4.3,5.9,6.2,9.1c2,3.1,4,6.1,5.9,9.2c1.9,3.1,3.6,6.3,5.4,9.4
			c1.8,3.1,3.6,6.3,5.2,9.5c1.6,3.2,3.3,6.4,4.8,9.6c0.8,1.6,1.5,3.3,2.2,4.9c0.7,1.6,1.4,3.3,2.1,4.9c1.4,3.3,2.9,6.5,4.1,9.8
			c1.3,3.3,2.5,6.6,3.8,9.9l0.9,2.5l0.8,2.5c0.5,1.7,1.1,3.3,1.6,5c0.5,1.7,1.1,3.3,1.6,5c0.5,1.7,1.1,3.3,1.5,5
			c0.9,3.4,1.8,6.7,2.7,10.1c0.4,1.7,0.9,3.3,1.3,5c0.4,1.7,0.7,3.4,1.1,5.1c0.7,3.4,1.4,6.7,2.1,10c0.6,3.4,1.1,6.7,1.6,10.1
			c0.5,3.3,1.1,6.7,1.4,10c0.3,3.3,0.7,6.7,1,10c0.1,1.7,0.4,3.3,0.4,5c0.1,1.7,0.2,3.3,0.3,5c0.2,3.3,0.3,6.6,0.5,9.9
			c0.1,3.3,0,6.5,0,9.8c0,1.6,0,3.2,0,4.9l0,2.4l0,1.2c0,1.3,0,0.7,0,1.1l0,0.6c-0.2,3-0.3,5.9-0.5,8.8l-0.1,2.2
			c0,0.3,0,0.7-0.1,1.2L668,365c-0.1,1.6-0.3,3.3-0.4,4.9c-0.1,1.6-0.3,3.3-0.4,4.9l-0.2,2.4l-0.3,2.3c-0.4,3.1-0.8,6.2-1.3,9.3
			c-0.4,3.1-1,6.1-1.6,9.1c-1,6.1-2.5,12-3.7,17.9c-0.8,2.9-1.5,5.8-2.3,8.7c-0.4,1.4-0.8,2.9-1.1,4.3c-0.4,1.4-0.9,2.8-1.3,4.2
			c-0.9,2.8-1.8,5.6-2.6,8.4c-1,2.8-1.9,5.5-2.9,8.2c-0.5,1.4-0.9,2.7-1.5,4.1c-0.5,1.3-1.1,2.7-1.6,4c-1.1,2.6-2.1,5.3-3.2,7.9
			c-1.2,2.6-2.3,5.1-3.4,7.7c-0.6,1.3-1.1,2.5-1.7,3.8c-0.6,1.2-1.2,2.5-1.8,3.7c-1.2,2.5-2.5,4.9-3.7,7.3c-1.3,2.4-2.6,4.8-3.9,7.1
			c-0.6,1.2-1.3,2.3-1.9,3.5c-0.6,1.2-1.4,2.3-2,3.4c-1.4,2.3-2.7,4.5-4.1,6.7c-1.3,2.2-2.8,4.4-4.2,6.5c-1.4,2.1-2.8,4.3-4.3,6.3
			c-1.5,2.1-3,4.1-4.4,6.1c-0.7,1-1.5,2-2.2,3c-0.8,1-1.5,2-2.3,2.9c-1.5,1.9-3,3.9-4.5,5.8c-1.5,1.9-3.1,3.7-4.6,5.5
			c-1.6,1.8-3.1,3.6-4.6,5.4c-1.6,1.7-3.2,3.4-4.7,5.1c-3.1,3.4-6.3,6.6-9.5,9.7c-0.8,0.8-1.6,1.6-2.3,2.3c-0.8,0.8-1.6,1.5-2.4,2.2
			c-1.6,1.5-3.2,2.9-4.8,4.4c-1.6,1.5-3.2,2.8-4.8,4.2c-1.6,1.4-3.2,2.7-4.7,4c-1.5,1.4-3.2,2.6-4.7,3.8c-1.6,1.2-3.1,2.5-4.7,3.7
			c-12.6,9.6-24.7,17.4-36,23.7c-22.6,12.7-41.8,19.5-54.8,23.5c-3.3,1-6.2,1.8-8.7,2.6c-2.5,0.6-4.6,1.2-6.4,1.6
			c-3.4,0.8-5.2,1.3-5.2,1.3l-2-5.7c0,0,1.6-0.8,4.7-2.4c1.5-0.8,3.4-1.7,5.7-2.9c2.2-1.2,4.8-2.6,7.7-4.2
			c11.5-6.5,28.1-16.4,46.9-31.7c18.8-15.2,39.8-35.7,58.8-62.5c1.2-1.7,2.4-3.4,3.6-5.1c1.2-1.7,2.3-3.5,3.4-5.3
			c1.1-1.8,2.4-3.5,3.5-5.4c1.1-1.8,2.2-3.7,3.3-5.5c0.6-0.9,1.1-1.9,1.7-2.8c0.5-1,1.1-1.9,1.6-2.9c1.1-1.9,2.1-3.9,3.2-5.8
			c1.1-1.9,2-4,3.1-6c1-2,2.1-4,3-6.1c1-2.1,1.9-4.1,2.9-6.2c0.5-1,1-2.1,1.4-3.1c0.4-1.1,0.9-2.1,1.3-3.2c0.9-2.1,1.8-4.3,2.7-6.5
			c0.8-2.2,1.7-4.4,2.5-6.6c0.4-1.1,0.8-2.2,1.3-3.3c0.4-1.1,0.8-2.3,1.1-3.4c0.8-2.3,1.5-4.6,2.3-6.8c0.7-2.3,1.4-4.7,2.1-7
			c0.3-1.2,0.7-2.3,1-3.5c0.3-1.2,0.6-2.4,0.9-3.6c0.6-2.4,1.2-4.8,1.8-7.2c0.5-2.4,1-4.9,1.6-7.3c0.3-1.2,0.5-2.5,0.8-3.7
			c0.2-1.2,0.4-2.5,0.7-3.7c0.4-2.5,0.9-5,1.3-7.5c0.3-2.5,0.7-5.1,1-7.6c0.2-1.3,0.4-2.5,0.5-3.8c0.1-1.3,0.3-2.6,0.4-3.9
			c0.2-2.6,0.6-5.2,0.7-7.8c0.2-2.6,0.3-5.2,0.5-7.9l0.1-2l0-1.9c0-1.3,0-2.5,0.1-3.8c0-1.3,0.1-2.5,0.1-3.8l0-0.9c0-0.3,0-0.6,0-1
			l0-2.2c0-2.9-0.1-5.9-0.1-8.8c-0.2-2.5-0.3-5.1-0.5-7.6c-0.2-2.7-0.3-5.4-0.5-8.1c-0.3-2.7-0.6-5.4-0.9-8.2
			c-0.1-1.4-0.3-2.7-0.4-4.1c-0.1-1.4-0.4-2.7-0.6-4.1c-0.4-2.7-0.9-5.5-1.3-8.2c-0.4-2.8-1.1-5.5-1.6-8.2c-0.6-2.7-1.1-5.5-1.7-8.2
			c-0.7-2.7-1.4-5.4-2.1-8.2c-0.4-1.4-0.7-2.7-1.1-4.1c-0.3-1.4-0.8-2.7-1.2-4.1c-0.8-2.7-1.7-5.4-2.5-8.2c-0.4-1.4-0.9-2.7-1.4-4
			c-0.5-1.3-1-2.7-1.5-4c-0.5-1.3-1-2.7-1.5-4l-0.7-2l-0.8-2c-1.1-2.7-2.2-5.3-3.3-8c-1-2.7-2.4-5.3-3.6-7.9c-0.6-1.3-1.2-2.6-1.9-4
			c-0.6-1.3-1.2-2.7-1.9-3.9c-2.8-5.1-5.3-10.5-8.4-15.5c-5.8-10.3-12.6-20.1-19.7-29.8c-3.7-4.7-7.3-9.6-11.3-14.1l-3-3.5l-1.5-1.7
			l-1.6-1.7c-2.1-2.2-4.1-4.5-6.2-6.7c-0.5-0.6-1-1.1-1.6-1.7l-1.6-1.6l-3.3-3.2c-2.2-2.1-4.3-4.4-6.7-6.4c-2.3-2.1-4.6-4.1-6.9-6.2
			c-2.3-2-4.8-3.9-7.2-5.9l-3.6-3l-3.7-2.8c-2.5-1.9-5-3.8-7.5-5.6c-5.2-3.4-10.3-7.2-15.7-10.4l-4-2.5c-1.3-0.8-2.7-1.7-4.1-2.4
			c-2.8-1.5-5.5-3-8.3-4.6c-0.7-0.4-1.4-0.8-2.1-1.1l-2.1-1l-4.3-2.1c-2.9-1.4-5.7-2.9-8.7-4c-2.9-1.3-5.9-2.5-8.8-3.8
			c-3-1.2-6-2.2-9-3.4l-4.5-1.7l-4.6-1.5c-3.1-1-6.1-2-9.2-2.9c-6.2-1.6-12.5-3.4-18.8-4.6l-4.8-1l-2.4-0.5
			c-0.8-0.2-1.6-0.3-2.4-0.4c-3.2-0.5-6.4-1-9.6-1.5l-2.4-0.4l-2.3-0.2l-4.6-0.5l-4.7-0.5c-0.8-0.1-1.5-0.2-2.4-0.2l-2.7-0.1
			l-10.7-0.5l-1.3-0.1l-0.7,0c1.1,0-0.1,0,0,0l-2.5,0l-4.9,0c-6.6-0.2-13.1,0.4-19.7,0.7c-1.6,0-3.3,0.3-4.9,0.5l-4.9,0.5l-4.9,0.5
			c-1.6,0.2-3.2,0.5-4.9,0.7l-9.7,1.5l-9.7,2c-1.6,0.4-3.2,0.6-4.8,1l-4.8,1.3l-4.8,1.3c-1.6,0.4-3.2,0.8-4.8,1.3l-9.4,3l-2.4,0.7
			l-2.3,0.9l-4.6,1.7c-6.2,2.2-12.2,4.9-18.3,7.5c-3,1.4-5.9,2.9-8.9,4.3c-1.5,0.7-3,1.4-4.4,2.2l-4.3,2.4l-4.3,2.4
			c-1.4,0.8-2.9,1.5-4.3,2.4c-2.8,1.7-5.6,3.4-8.4,5.2l-2.1,1.3l-2,1.4l-4.1,2.8c-2.7,1.9-5.5,3.6-8,5.7c-2.6,2-5.2,3.9-7.9,5.9
			c-2.5,2.1-5,4.2-7.6,6.3c-39.9,33.9-70.1,78.2-86.4,125.9l-0.8,2.2c-0.3,0.7-0.5,1.5-0.7,2.2l-1.4,4.5l-1.4,4.5
			c-0.5,1.5-0.9,3-1.3,4.5c-1.5,6.1-3.2,12.1-4.3,18.2c-0.6,3-1.3,6.1-1.8,9.1c-0.5,3.1-0.9,6.1-1.4,9.2c-0.2,1.5-0.5,3-0.7,4.6
			c-0.1,1.5-0.3,3-0.4,4.5c-0.3,3-0.6,5.9-0.9,8.9c-0.1,0.7-0.1,1.5-0.2,2.3l-0.1,2.4c-0.1,1.6-0.2,3.2-0.2,4.8
			c-0.1,1.6-0.2,3.2-0.2,4.8l-0.1,1.2l0,0.6c0,0,0,0.8,0,0.2l0,2.3c0,3,0,6,0,9.1c0,1.5,0,3,0,4.5c0.1,1.5,0.2,3,0.2,4.5
			c0.2,3,0.3,6,0.5,8.9c0.2,3,0.6,5.9,0.9,8.9c0.1,1.5,0.3,2.9,0.4,4.4c0.1,0.7,0.1,1.5,0.2,2.2l0.3,2.2c0.4,2.9,0.9,5.8,1.3,8.7
			c0.2,1.4,0.4,2.9,0.7,4.3c0.3,1.4,0.6,2.9,0.9,4.3c0.6,2.8,1.2,5.7,1.7,8.5c0.7,2.8,1.4,5.6,2.1,8.4c0.4,1.4,0.7,2.8,1.1,4.2
			l0.5,2.1l0.6,2c0.8,2.7,1.7,5.4,2.5,8.1c0.4,1.3,0.8,2.7,1.3,4c0.5,1.3,1,2.6,1.5,4c1,2.6,1.9,5.3,2.9,7.9c0.4,1.3,1,2.6,1.6,3.9
			c0.5,1.3,1.1,2.6,1.6,3.8c8.6,20.4,19.2,39.2,31.1,56c12,16.8,25.2,31.8,38.9,44.8c13.8,13,28,24.1,42.3,33.3
			c14.2,9.2,28.4,16.6,41.8,22.7c3.4,1.5,6.7,2.9,10,4.3c3.3,1.3,6.5,2.5,9.7,3.7c1.6,0.6,3.2,1.2,4.7,1.7c1.6,0.5,3.1,1,4.7,1.5
			c3.1,1,6.1,1.9,9,2.8c2.9,0.9,5.8,1.6,8.7,2.3c1.4,0.4,2.8,0.7,4.2,1.1c1.4,0.4,2.7,0.7,4.1,1c2.7,0.6,5.3,1.1,7.8,1.6
			c1.3,0.3,2.5,0.5,3.7,0.8c0.6,0.1,1.2,0.3,1.8,0.4c0.6,0.1,1.2,0.2,1.8,0.3c4.7,0.7,9.1,1.4,13.1,2.1c4,0.4,7.7,0.8,10.9,1.2
			c1.6,0.2,3.2,0.3,4.6,0.5c1.5,0.1,2.8,0.2,4.1,0.2c2.5,0.1,4.7,0.3,6.4,0.4c3.5,0.2,5.2,0.3,5.2,0.3L333.9,660z"/>
	</g>
	<text id="XMLID_3_" transform="matrix(1.2407 0 0 1 118.2879 401.428)" class="st2 st3 st4">ZEN</text>
</g>
</svg>
